<?xml version="1.0" standalone="no"?>
<!DOCTYPE svg PUBLIC "-//W3C//DTD SVG 20010904//EN"
 "http://www.w3.org/TR/2001/REC-SVG-20010904/DTD/svg10.dtd">
<svg version="1.0" xmlns="http://www.w3.org/2000/svg"
 width="1280.000000pt" height="1194.000000pt" viewBox="0 0 1280.000000 1194.000000"
 preserveAspectRatio="xMidYMid meet">
<metadata>
Created by potrace 1.15, written by Peter Selinger 2001-2017
</metadata>
<g transform="translate(0.000000,1194.000000) scale(0.100000,-0.100000)"
fill="#3f51b5" stroke="none">
<path d="M6050 11933 c-411 -19 -938 -98 -1335 -199 -1437 -368 -2687 -1175
-3518 -2273 -246 -324 -412 -593 -597 -966 -323 -654 -502 -1270 -577 -1995
-24 -230 -23 -781 1 -1005 99 -930 389 -1768 882 -2546 290 -457 694 -930
1095 -1279 47 -41 143 -127 215 -191 263 -235 486 -394 705 -501 172 -85 416
-203 594 -288 239 -115 535 -229 853 -330 131 -42 161 -55 152 -65 -21 -25 42
-55 226 -109 529 -156 1521 -225 1964 -136 52 10 149 24 215 30 66 6 139 13
163 16 42 6 42 6 42 -25 0 -18 9 -40 21 -52 42 -42 164 -16 637 137 144 46
322 108 395 135 72 28 218 82 322 119 806 286 1408 613 2005 1089 328 262 894
803 1100 1051 688 829 1090 1774 1170 2750 14 171 14 568 0 725 -14 161 -32
297 -37 291 -3 -3 0 -53 7 -111 14 -120 7 -156 -8 -43 -8 64 -10 43 -12 -157
l-3 -230 -8 265 c-10 367 -26 543 -78 845 -75 429 -189 829 -351 1230 -66 164
-256 551 -350 715 -598 1033 -1497 1865 -2605 2410 -217 107 -798 357 -1015
438 -411 152 -706 215 -990 210 -91 -2 -203 4 -300 15 -284 32 -680 44 -980
30z m890 -113 c69 -7 127 -14 128 -16 2 -1 -14 -18 -36 -38 -144 -130 -175
-446 -67 -671 99 -204 295 -347 785 -570 564 -257 938 -474 1143 -665 126
-116 236 -159 466 -181 314 -30 771 60 1073 212 42 21 86 49 97 61 110 117
-207 512 -744 926 -63 48 20 -1 190 -113 1091 -719 1884 -1721 2320 -2930 105
-291 213 -724 260 -1045 39 -259 47 -379 49 -725 2 -219 1 -288 -3 -185 -4 91
-8 152 -9 136 -2 -28 -33 -69 -131 -174 -37 -40 -40 -41 -43 -20 -2 13 -8 -44
-12 -127 -18 -346 -21 -326 -21 135 0 493 -8 651 -42 802 -27 122 -50 103 -93
-76 -36 -152 -83 -277 -153 -401 -109 -195 -179 -280 -339 -407 -194 -153
-225 -193 -176 -219 12 -7 95 -15 187 -19 189 -9 271 -29 343 -83 53 -40 74
-83 82 -166 8 -86 -2 -73 -13 16 -10 78 -32 117 -83 148 -17 10 -28 13 -24 7
3 -6 -8 -26 -26 -44 -18 -19 -67 -72 -108 -118 -41 -47 -86 -96 -100 -110 -14
-14 -54 -59 -90 -100 -36 -41 -76 -86 -90 -100 -14 -14 -59 -63 -100 -110 -41
-47 -86 -96 -100 -110 -14 -14 -59 -63 -100 -110 -41 -47 -86 -96 -100 -110
-14 -14 -59 -63 -100 -110 -41 -47 -86 -96 -100 -110 -14 -14 -59 -63 -100
-110 -41 -47 -86 -96 -100 -110 -14 -14 -59 -63 -100 -110 -41 -47 -86 -96
-100 -110 -14 -14 -59 -63 -100 -110 -41 -47 -86 -96 -100 -110 -14 -14 -59
-63 -100 -110 -41 -47 -86 -96 -100 -110 -14 -14 -59 -63 -100 -110 -41 -47
-86 -96 -100 -110 -14 -14 -45 -48 -69 -75 -52 -58 -222 -243 -266 -289 -16
-18 -48 -52 -69 -76 -137 -156 -220 -239 -245 -242 -24 -3 -71 -57 -71 -82 0
-6 10 7 23 29 43 77 116 51 152 -54 10 -29 14 -76 13 -135 l-1 -91 -7 105 c-7
114 -11 129 -47 178 -29 39 -64 42 -91 8 -32 -42 -45 -132 -40 -283 3 -94 1
-125 -5 -98 -4 22 -7 101 -5 176 2 93 0 132 -7 125 -5 -6 -44 -49 -85 -96 -41
-47 -86 -96 -100 -110 -14 -14 -59 -63 -100 -110 -41 -47 -86 -96 -100 -110
-14 -14 -59 -63 -100 -110 -41 -47 -86 -96 -100 -110 -14 -14 -59 -63 -100
-110 -41 -47 -86 -96 -100 -110 -14 -14 -59 -63 -100 -110 -41 -47 -86 -96
-100 -110 -14 -14 -59 -63 -100 -110 -41 -47 -86 -96 -100 -110 -14 -14 -59
-63 -100 -110 -41 -47 -86 -96 -100 -110 -14 -14 -59 -63 -100 -110 -41 -46
-88 -98 -105 -116 -16 -17 -50 -53 -75 -80 -25 -27 -56 -57 -70 -67 -14 -10 4
-3 40 16 211 112 502 259 505 255 2 -2 -94 -54 -214 -116 -120 -62 -271 -142
-334 -177 -64 -36 -122 -62 -130 -59 -8 3 -18 1 -22 -5 -4 -7 1 -9 12 -5 27 9
-21 -29 -92 -72 -33 -21 -90 -59 -126 -86 l-66 -48 -137 -14 c-130 -14 -138
-14 -169 4 -95 55 -475 112 -952 141 -99 6 -400 12 -669 15 l-489 4 -161 45
c-89 24 -247 74 -351 109 -184 63 -428 155 -412 156 4 0 51 -8 105 -17 75 -13
157 -17 357 -17 589 1 624 47 625 824 0 372 -8 509 -40 700 -41 242 -93 366
-160 383 -156 39 -339 116 -680 288 -295 148 -386 198 -1075 589 -309 175
-566 320 -572 322 -6 2 -143 -116 -304 -262 -514 -463 -630 -586 -666 -709
-32 -111 0 -241 108 -435 27 -49 49 -91 49 -93 0 -11 -209 241 -305 367 -589
775 -982 1707 -1114 2640 -43 301 -46 358 -46 760 0 423 7 512 62 860 l26 165
45 40 c166 146 295 285 381 413 49 72 76 141 62 155 -33 33 -186 -80 -354
-260 -37 -40 -67 -69 -67 -65 0 17 72 267 109 382 411 1249 1227 2314 2339
3054 799 531 1746 892 2705 1031 147 21 360 44 552 59 110 8 857 -3 975 -14z
m5827 -5832 c-3 -7 -5 -2 -5 12 0 14 2 19 5 13 2 -7 2 -19 0 -25z m-50 -315
c-2 -21 -4 -6 -4 32 0 39 2 55 4 38 2 -18 2 -50 0 -70z m-120 -85 c-2 -24 -4
-7 -4 37 0 44 2 63 4 43 2 -21 2 -57 0 -80z m110 -55 c-2 -16 -4 -3 -4 27 0
30 2 43 4 28 2 -16 2 -40 0 -55z m-120 -55 c-2 -13 -4 -3 -4 22 0 25 2 35 4
23 2 -13 2 -33 0 -45z m110 -45 c-3 -10 -5 -4 -5 12 0 17 2 24 5 18 2 -7 2
-21 0 -30z m-120 -45 c-2 -13 -4 -5 -4 17 -1 22 1 32 4 23 2 -10 2 -28 0 -40z
m110 -50 c-3 -7 -5 -2 -5 12 0 14 2 19 5 13 2 -7 2 -19 0 -25z m-120 -35 c-3
-10 -5 -4 -5 12 0 17 2 24 5 18 2 -7 2 -21 0 -30z m-190 -25 c-2 -13 -4 -5 -4
17 -1 22 1 32 4 23 2 -10 2 -28 0 -40z m300 -10 c-3 -8 -6 -5 -6 6 -1 11 2 17
5 13 3 -3 4 -12 1 -19z m-120 -30 c-3 -7 -5 -2 -5 12 0 14 2 19 5 13 2 -7 2
-19 0 -25z m-190 -25 c-3 -10 -5 -4 -5 12 0 17 2 24 5 18 2 -7 2 -21 0 -30z
m-147 -58 c0 -5 -5 -3 -10 5 -5 8 -10 20 -10 25 0 6 5 3 10 -5 5 -8 10 -19 10
-25z m327 13 c-3 -8 -6 -5 -6 6 -1 11 2 17 5 13 3 -3 4 -12 1 -19z m-257 -81
c13 -5 13 -6 -1 -6 -8 -1 -28 14 -45 32 l-29 32 30 -26 c17 -15 37 -29 45 -32z
m50 19 c0 -2 -8 -10 -17 -17 -16 -13 -17 -12 -4 4 13 16 21 21 21 13z m187
-58 c-3 -8 -6 -5 -6 6 -1 11 2 17 5 13 3 -3 4 -12 1 -19z m-3010 -2890 c-3 -8
-6 -5 -6 6 -1 11 2 17 5 13 3 -3 4 -12 1 -19z m-10 -40 c-3 -8 -6 -5 -6 6 -1
11 2 17 5 13 3 -3 4 -12 1 -19z m-16 -45 c-12 -20 -14 -14 -5 12 4 9 9 14 11
11 3 -2 0 -13 -6 -23z m-99 -97 c13 -8 23 -5 45 14 l28 25 -24 -27 c-14 -16
-30 -28 -37 -28 -18 0 -54 49 -53 74 0 15 4 11 12 -13 7 -19 20 -39 29 -45z
m-642 -926 c-8 -5 -19 -10 -25 -10 -5 0 -3 5 5 10 8 5 20 10 25 10 6 0 3 -5
-5 -10z m-100 -45 c-14 -8 -29 -14 -35 -14 -5 0 1 6 15 14 14 8 30 14 35 14 6
0 -1 -6 -15 -14z m-140 -65 c-19 -11 -39 -19 -45 -19 -5 0 6 8 25 19 19 11 40
19 45 19 6 0 -6 -8 -25 -19z m-220 -105 c-58 -30 -109 -54 -115 -54 -5 0 37
24 95 54 58 30 110 54 115 54 6 0 -37 -24 -95 -54z"/>
<path d="M5110 11293 c-19 -1 -87 -8 -150 -14 -811 -75 -1638 -362 -2285 -792
-614 -408 -1074 -926 -1380 -1552 -122 -251 -213 -518 -274 -800 -24 -111 -35
-141 -73 -204 l-46 -75 32 -40 33 -41 -8 -135 c-10 -153 3 -437 27 -599 106
-719 446 -1397 983 -1961 71 -74 176 -175 233 -225 l105 -90 5 -225 c6 -218
19 -315 46 -342 30 -30 77 126 94 314 l12 127 62 -45 c393 -280 807 -488 1289
-649 896 -300 1817 -351 2748 -155 158 33 394 97 417 112 12 8 12 9 -3 4 -121
-38 -210 -57 -217 -46 -6 9 -10 9 -16 -2 -5 -9 -20 -18 -34 -22 -25 -6 -25 -6
-2 5 14 8 22 21 22 38 l0 26 -20 -25 -20 -25 0 29 c0 28 0 29 -20 11 -20 -18
-20 -17 -20 33 0 49 -12 68 -23 40 -3 -7 -6 2 -6 21 -1 33 -2 34 -16 15 -14
-18 -14 -18 -15 10 0 28 0 29 -20 11 -20 -18 -20 -17 -20 35 0 52 0 53 -20 35
-20 -18 -20 -17 -20 10 0 23 -2 26 -15 15 -13 -11 -15 -8 -15 15 l0 28 -20
-23 -20 -23 0 63 c0 58 -1 62 -15 44 -14 -18 -14 -18 -15 10 0 28 0 29 -20 11
-19 -18 -20 -17 -20 5 0 22 -1 23 -20 5 -20 -18 -20 -17 -20 41 -1 54 -2 57
-15 40 -14 -19 -15 -18 -15 14 l0 33 -20 -23 -20 -23 0 63 c0 58 -1 62 -15 44
-14 -18 -14 -18 -15 10 0 28 0 29 -20 11 -20 -18 -20 -17 -20 35 0 52 0 53
-20 35 -20 -18 -20 -17 -20 11 -1 28 -1 28 -15 10 -14 -18 -15 -14 -15 44 l0
63 -20 -23 -20 -23 0 28 c0 23 -2 26 -15 15 -13 -11 -15 -5 -15 46 l0 59 -20
-25 -20 -25 0 29 c0 28 0 29 -20 11 -20 -18 -20 -17 -20 33 0 49 -12 68 -23
40 -3 -7 -6 16 -7 52 -1 36 -4 59 -7 53 -8 -21 -23 -15 -23 9 0 20 -1 21 -20
3 -20 -18 -20 -17 -20 40 l0 57 -20 -23 -19 -24 -1 59 c0 58 0 59 -20 41 -20
-18 -20 -17 -20 33 0 49 -12 68 -23 40 -3 -7 -6 2 -6 21 -1 33 -2 34 -16 15
-13 -17 -14 -14 -15 40 0 58 0 59 -20 41 -20 -18 -20 -17 -20 35 0 52 0 53
-20 35 -20 -18 -20 -17 -20 41 -1 54 -2 57 -15 40 -14 -18 -15 -14 -15 44 l0
63 -20 -23 -20 -23 0 58 c0 50 -2 56 -15 45 -13 -11 -15 -5 -15 46 l0 59 -20
-25 -20 -25 0 59 c0 58 0 59 -20 41 -20 -18 -20 -17 -20 648 0 367 4 667 8
667 4 0 13 -4 20 -10 7 -6 7 -5 0 4 -7 7 -80 67 -163 133 -82 66 -161 133
-175 149 -14 15 0 6 31 -21 30 -28 119 -99 197 -159 78 -60 139 -112 137 -117
-3 -4 0 -11 6 -15 8 -4 9 -3 5 4 -14 22 4 12 96 -56 232 -172 334 -215 372
-160 29 41 20 80 -26 125 -93 90 -388 254 -698 387 -58 25 -99 46 -93 46 7 0
79 -29 159 -65 137 -61 183 -78 142 -54 -17 9 -18 116 -18 2014 l0 2005 -37 2
c-21 1 50 5 157 8 171 5 156 6 -125 6 -176 1 -336 -1 -355 -3z m263 -10 c-7
-2 -21 -2 -30 0 -10 3 -4 5 12 5 17 0 24 -2 18 -5z m1284 -7459 c-3 -3 -12 -4
-19 -1 -8 3 -5 6 6 6 11 1 17 -2 13 -5z"/>
<path d="M5843 11283 c15 -2 37 -2 50 0 12 2 0 4 -28 4 -27 0 -38 -2 -22 -4z"/>
<path d="M8740 7149 c-801 -359 -977 -433 -1243 -518 -214 -68 -345 -94 -482
-94 -136 -1 -160 6 -239 73 -116 97 -283 169 -397 173 -77 2 -99 -15 -75 -61
18 -35 95 -96 211 -167 214 -131 305 -321 350 -728 17 -158 35 -689 35 -1082
1 -763 68 -939 427 -1123 177 -90 454 -203 695 -283 689 -228 1191 -203 1588
79 185 131 381 368 665 802 298 455 416 758 416 1070 0 373 -178 723 -645
1270 -168 196 -753 831 -765 829 -3 0 -247 -108 -541 -240z"/>
<path d="M12591 6214 c0 -11 3 -14 6 -6 3 7 2 16 -1 19 -3 4 -6 -2 -5 -13z"/>
<path d="M12592 6080 c0 -19 2 -27 5 -17 2 9 2 25 0 35 -3 9 -5 1 -5 -18z"/>
<path d="M6770 3506 c-362 -128 -1290 -632 -1536 -834 -63 -51 -101 -103 -89
-122 21 -34 163 16 443 155 608 301 1312 740 1312 817 0 15 -66 7 -130 -16z"/>
<path d="M7534 464 c-18 -14 -18 -15 4 -4 12 6 22 13 22 15 0 8 -5 6 -26 -11z"/>
<path d="M7395 390 c-11 -4 -60 -11 -108 -15 -48 -4 -86 -10 -83 -12 10 -10
186 10 203 23 20 15 17 16 -12 4z"/>
<path d="M7138 353 c12 -2 30 -2 40 0 9 3 -1 5 -23 4 -22 0 -30 -2 -17 -4z"/>
<path d="M7018 343 c17 -2 47 -2 65 0 17 2 3 4 -33 4 -36 0 -50 -2 -32 -4z"/>
<path d="M6883 333 c15 -2 37 -2 50 0 12 2 0 4 -28 4 -27 0 -38 -2 -22 -4z"/>
<path d="M6698 323 c6 -2 18 -2 25 0 6 3 1 5 -13 5 -14 0 -19 -2 -12 -5z"/>
<path d="M6748 323 c7 -3 16 -2 19 1 4 3 -2 6 -13 5 -11 0 -14 -3 -6 -6z"/>
<path d="M12702 6530 c0 -14 2 -19 5 -12 2 6 2 18 0 25 -3 6 -5 1 -5 -13z"/>
<path d="M12712 6480 c-1 -14 5 -54 13 -90 7 -36 13 -54 13 -40 1 14 -5 54
-13 90 -7 36 -13 54 -13 40z"/>
<path d="M12722 6290 c0 -14 2 -19 5 -12 2 6 2 18 0 25 -3 6 -5 1 -5 -13z"/>
</g>
</svg>
